<svg width="56" height="49" viewBox="0 0 56 49" fill="none" xmlns="http://www.w3.org/2000/svg">
<path d="M28.7179 11.5294H5.74359C4.22029 11.5294 2.75939 12.1368 1.68226 13.2179C0.605126 14.2989 0 15.7652 0 17.2941V28.8235C0 30.3524 0.605126 31.8187 1.68226 32.8998C2.75939 33.9809 4.22029 34.5882 5.74359 34.5882H8.61539V46.1176C8.61539 46.8821 8.91795 47.6152 9.45651 48.1558C9.99508 48.6963 10.7255 49 11.4872 49H17.2308C17.9924 49 18.7229 48.6963 19.2614 48.1558C19.8 47.6152 20.1026 46.8821 20.1026 46.1176V34.5882H28.7179L43.0769 46.1176V0L28.7179 11.5294ZM56 23.0588C56 27.9876 53.2431 32.4553 48.8205 34.5882V11.5294C53.2144 13.6912 56 18.1588 56 23.0588Z" fill="black"/>
</svg>
