<svg width="63" height="63" viewBox="0 0 63 63" fill="none" xmlns="http://www.w3.org/2000/svg">
<path d="M31.5 0C14.1317 0 0 14.1317 0 31.5C0 41.6574 4.85517 50.6812 12.3425 56.4454C13.4906 57.559 14.8666 58.4934 16.4504 59.1619C20.9249 61.6059 26.0527 63 31.5 63C48.8683 63 63 48.8683 63 31.5C63 14.1317 48.8683 0 31.5 0ZM31.5 4.84615C46.2492 4.84615 58.1538 16.7508 58.1538 31.5C58.1538 39.1489 54.9358 46.0152 49.7961 50.8704C52.64 46.7217 54.311 41.7092 54.311 36.313C54.311 22.0816 42.7263 10.4921 28.4948 10.4921C18.8646 10.4921 10.4581 15.8074 6.01983 23.6487C9.36206 12.747 19.4854 4.84615 31.5 4.84615ZM28.4948 15.3383C40.1072 15.3383 49.4648 24.7006 49.4648 36.313C49.4648 42.6011 46.7069 48.2143 42.3471 52.0536C44.4087 48.8972 45.6173 45.1365 45.6173 41.0977C45.6173 30.0164 36.5851 20.9795 25.5038 20.9795C18.203 20.9795 11.8082 24.9161 8.282 30.7617C10.7095 21.8613 18.8086 15.3383 28.4948 15.3383ZM25.5038 25.8256C33.9661 25.8256 40.7711 32.6354 40.7711 41.0977C40.7711 45.8188 38.6521 50.0199 35.3097 52.8155C36.3939 50.6692 36.933 48.2858 36.933 45.9107C36.933 42.3688 35.7637 38.7907 33.3173 36.0385C30.871 33.2864 27.1042 31.4716 22.4939 31.4716C17.8836 31.4716 14.1216 33.2864 11.6753 36.0385C11.3378 36.4182 11.0321 36.8175 10.7429 37.2264C12.4503 30.655 18.3827 25.8256 25.5038 25.8256ZM22.4939 36.3178C25.8927 36.3178 28.1387 37.5085 29.6969 39.2614C31.2551 41.0144 32.0868 43.4457 32.0868 45.9107C32.0868 48.3756 31.2551 50.807 29.6969 52.5599C28.1387 54.3129 25.8927 55.4989 22.4939 55.4989C21.1991 55.4989 20.1189 55.2836 19.1338 54.9736C17.6283 54.2853 16.2608 53.3628 15.0685 52.2476C13.6709 50.5222 12.9057 48.2409 12.9057 45.9107C12.9057 43.4457 13.7375 41.0144 15.2957 39.2614C16.8539 37.5085 19.0951 36.3178 22.4939 36.3178Z" fill="black"/>
</svg>
