<svg width="41" height="41" viewBox="0 0 41 41" fill="none" xmlns="http://www.w3.org/2000/svg">
<path d="M2.27778 22.7778H15.9444C17.1972 22.7778 18.2222 21.7528 18.2222 20.5V2.27778C18.2222 1.025 17.1972 0 15.9444 0H2.27778C1.025 0 0 1.025 0 2.27778V20.5C0 21.7528 1.025 22.7778 2.27778 22.7778ZM2.27778 41H15.9444C17.1972 41 18.2222 39.975 18.2222 38.7222V29.6111C18.2222 28.3583 17.1972 27.3333 15.9444 27.3333H2.27778C1.025 27.3333 0 28.3583 0 29.6111V38.7222C0 39.975 1.025 41 2.27778 41ZM25.0556 41H38.7222C39.975 41 41 39.975 41 38.7222V20.5C41 19.2472 39.975 18.2222 38.7222 18.2222H25.0556C23.8028 18.2222 22.7778 19.2472 22.7778 20.5V38.7222C22.7778 39.975 23.8028 41 25.0556 41ZM22.7778 2.27778V11.3889C22.7778 12.6417 23.8028 13.6667 25.0556 13.6667H38.7222C39.975 13.6667 41 12.6417 41 11.3889V2.27778C41 1.025 39.975 0 38.7222 0H25.0556C23.8028 0 22.7778 1.025 22.7778 2.27778Z" fill="black"/>
</svg>
