<svg width="25" height="33" viewBox="0 0 25 33" fill="none" xmlns="http://www.w3.org/2000/svg">
<path fill-rule="evenodd" clip-rule="evenodd" d="M15.8065 0.416667C15.8065 0.30616 15.7648 0.200179 15.6907 0.122039C15.6166 0.0438988 15.5161 0 15.4113 0H4.34677C3.19394 0 2.08832 0.482886 1.27314 1.34243C0.457962 2.20197 0 3.36776 0 4.58333V27.9167C0 29.1322 0.457962 30.298 1.27314 31.1576C2.08832 32.0171 3.19394 32.5 4.34677 32.5H20.1532C21.3061 32.5 22.4117 32.0171 23.2269 31.1576C24.042 30.298 24.5 29.1322 24.5 27.9167V11.495C24.5 11.3845 24.4584 11.2785 24.3843 11.2004C24.3102 11.1222 24.2096 11.0783 24.1048 11.0783H16.9919C16.6775 11.0783 16.376 10.9466 16.1537 10.7122C15.9314 10.4778 15.8065 10.1599 15.8065 9.82833V0.416667ZM16.9919 16.6667C17.3063 16.6667 17.6079 16.7984 17.8302 17.0328C18.0525 17.2672 18.1774 17.5851 18.1774 17.9167C18.1774 18.2482 18.0525 18.5661 17.8302 18.8005C17.6079 19.035 17.3063 19.1667 16.9919 19.1667H7.50806C7.19366 19.1667 6.89212 19.035 6.6698 18.8005C6.44748 18.5661 6.32258 18.2482 6.32258 17.9167C6.32258 17.5851 6.44748 17.2672 6.6698 17.0328C6.89212 16.7984 7.19366 16.6667 7.50806 16.6667H16.9919ZM16.9919 23.3333C17.3063 23.3333 17.6079 23.465 17.8302 23.6994C18.0525 23.9339 18.1774 24.2518 18.1774 24.5833C18.1774 24.9149 18.0525 25.2328 17.8302 25.4672C17.6079 25.7016 17.3063 25.8333 16.9919 25.8333H7.50806C7.19366 25.8333 6.89212 25.7016 6.6698 25.4672C6.44748 25.2328 6.32258 24.9149 6.32258 24.5833C6.32258 24.2518 6.44748 23.9339 6.6698 23.6994C6.89212 23.465 7.19366 23.3333 7.50806 23.3333H16.9919Z" fill="#FCF6F5"/>
<path d="M18.1758 0.956432C18.1758 0.649765 18.4808 0.454765 18.7069 0.646432C18.8981 0.809765 19.0704 0.999765 19.2174 1.21643L23.9799 8.21143C24.0874 8.37143 23.9704 8.5781 23.7839 8.5781H18.5709C18.4661 8.5781 18.3656 8.5342 18.2915 8.45606C18.2174 8.37792 18.1758 8.27194 18.1758 8.16143V0.956432Z" fill="#FCF6F5"/>
</svg>
