<svg width="66" height="66" viewBox="0 0 66 66" fill="none" xmlns="http://www.w3.org/2000/svg">
<path fill-rule="evenodd" clip-rule="evenodd" d="M42.4522 34.2257C41.9064 32.7955 40.8951 31.5572 39.5578 30.6814C38.2204 29.8057 36.6227 29.3355 34.9848 29.3358V27.5023H31.0254V29.3358C28.9252 29.3358 26.9111 30.1085 25.426 31.4838C23.941 32.8592 23.1067 34.7246 23.1067 36.6697C23.1067 38.6148 23.941 40.4802 25.426 41.8556C26.9111 43.231 28.9252 44.0037 31.0254 44.0037V51.3376C29.3031 51.3376 27.8361 50.32 27.2898 48.8936C27.2087 48.6602 27.0779 48.4442 26.9052 48.2585C26.7324 48.0727 26.5212 47.921 26.284 47.8121C26.0468 47.7033 25.7884 47.6397 25.5242 47.6249C25.26 47.6102 24.9953 47.6447 24.7457 47.7263C24.4961 47.808 24.2667 47.9352 24.0711 48.1004C23.8756 48.2656 23.7177 48.4654 23.607 48.6881C23.4963 48.9108 23.4349 49.1518 23.4265 49.3968C23.4181 49.6418 23.4628 49.8859 23.558 50.1147C24.1039 51.5449 25.1151 52.7832 26.4525 53.6589C27.7899 54.5347 29.3875 55.0048 31.0254 55.0046V56.8381H34.9848V55.0046C37.085 55.0046 39.0992 54.2319 40.5842 52.8565C42.0693 51.4811 42.9036 49.6157 42.9036 47.6706C42.9036 45.7256 42.0693 43.8601 40.5842 42.4848C39.0992 41.1094 37.085 40.3367 34.9848 40.3367V33.0027C35.8036 33.0026 36.6024 33.2375 37.2711 33.6752C37.9397 34.1129 38.4454 34.7318 38.7185 35.4468C38.8934 35.9053 39.2577 36.2808 39.7315 36.4905C39.966 36.5944 40.2204 36.6544 40.48 36.6672C40.7396 36.6801 40.9994 36.6454 41.2446 36.5652C41.4898 36.485 41.7155 36.3609 41.9088 36.2C42.1022 36.039 42.2594 35.8443 42.3716 35.6271C42.4837 35.4098 42.5486 35.1743 42.5624 34.9338C42.5762 34.6934 42.5388 34.4527 42.4522 34.2257ZM31.0254 33.0027C29.9753 33.0027 28.9683 33.3891 28.2257 34.0768C27.4832 34.7645 27.066 35.6972 27.066 36.6697C27.066 37.6423 27.4832 38.575 28.2257 39.2627C28.9683 39.9504 29.9753 40.3367 31.0254 40.3367V33.0027ZM34.9848 51.3376C36.0349 51.3376 37.042 50.9513 37.7845 50.2636C38.527 49.5759 38.9442 48.6432 38.9442 47.6706C38.9442 46.6981 38.527 45.7654 37.7845 45.0777C37.042 44.39 36.0349 44.0037 34.9848 44.0037V51.3376Z" fill="black"/>
<path fill-rule="evenodd" clip-rule="evenodd" d="M11.5314 4.80557C16.3896 2.60355 24.3598 0 33.0824 0C41.6227 0 49.3831 2.49537 54.2156 4.66805L54.4888 4.7909C55.9458 5.45829 57.1218 6.08901 57.9493 6.60055L50.6363 16.5014C67.4953 32.4637 80.5178 66 33.0824 66C-14.3531 66 -1.68104 33.0724 15.3245 16.5014L8.05904 6.60055C8.6193 6.26136 9.33 5.86716 10.1773 5.44912C10.597 5.2401 11.0484 5.02436 11.5314 4.80557ZM45.9365 16.3712L51.7904 8.44504C46.3463 8.80807 39.8687 9.9925 33.6327 11.6646C29.1784 12.8564 24.2292 12.6749 19.6462 11.892C18.4912 11.6939 17.3443 11.4579 16.2075 11.1843L20.0085 16.3675C28.1549 19.0536 37.7881 19.0536 45.9365 16.3712ZM17.7219 19.49C27.2541 22.9002 38.7106 22.9002 48.2428 19.4863C52.2207 23.3717 55.5491 27.786 58.1175 32.5829C60.7941 37.6396 62.2511 42.6946 62.0136 47.0509C61.7839 51.2551 59.9983 54.8469 55.9201 57.5165C51.6697 60.2979 44.521 62.333 33.0804 62.333C21.6279 62.333 14.4455 60.3327 10.1555 57.5825C6.04767 54.9477 4.24418 51.4036 3.98879 47.2563C3.72154 42.9476 5.14691 37.9183 7.81356 32.8267C10.3575 27.9717 13.9071 23.2981 17.7219 19.49ZM15.4453 7.17993C17.029 7.6163 18.6841 7.99583 20.3628 8.28369C24.6192 9.00975 28.8874 9.11609 32.53 8.13884C36.7748 6.9931 41.0922 6.09236 45.4574 5.44179C41.8148 4.42604 37.5545 3.66697 33.0804 3.66697C26.2603 3.66697 19.8996 5.42895 15.4453 7.17993Z" fill="black"/>
</svg>
