<svg width="46" height="46" viewBox="0 0 46 46" fill="none" xmlns="http://www.w3.org/2000/svg">
<path d="M17.5797 16.6111C18.8677 15.0522 20.8176 14.0556 23 14.0556C25.1824 14.0556 27.1323 15.0522 28.4203 16.6111C29.2683 17.6392 29.8065 18.8873 29.9721 20.2097C30.1376 21.5321 29.9238 22.8743 29.3554 24.0798C28.7871 25.2852 27.8877 26.3042 26.7622 27.0179C25.6367 27.7316 24.3314 28.1106 22.9987 28.1106C21.666 28.1106 20.3608 27.7316 19.2352 27.0179C18.1097 26.3042 17.2103 25.2852 16.642 24.0798C16.0737 22.8743 15.8598 21.5321 16.0254 20.2097C16.191 18.8873 16.7291 17.6392 17.5771 16.6111M32.5808 21.0833C32.5808 19.4682 32.1821 17.9451 31.4768 16.6111H42.1667C43.1833 16.6111 44.1584 17.015 44.8772 17.7339C45.5961 18.4528 46 19.4278 46 20.4444V21.7222C46 25.7779 42.918 29.9307 37.5283 31.3924C36.9745 30.3975 36.1647 29.5687 35.183 28.9918C34.2013 28.4149 33.0832 28.1108 31.9444 28.1111H29.5167C30.4853 27.2149 31.2579 26.1278 31.7856 24.9182C32.3134 23.7087 32.585 22.403 32.5833 21.0833M31.9444 30.6667C32.4482 30.6653 32.9473 30.7635 33.413 30.9557C33.8787 31.1479 34.3018 31.4302 34.658 31.7864C35.0143 32.1426 35.2966 32.5658 35.4887 33.0315C35.6809 33.4971 35.7791 33.9962 35.7778 34.5V35.7778C35.7778 40.8148 31.0244 46 23 46C14.9756 46 10.2222 40.8148 10.2222 35.7778V34.5C10.2209 33.9962 10.3191 33.4971 10.5113 33.0315C10.7034 32.5658 10.9857 32.1426 11.342 31.7864C11.6982 31.4302 12.1213 31.1479 12.587 30.9557C13.0527 30.7635 13.5518 30.6653 14.0556 30.6667H31.9444ZM0 21.7222C0 25.7779 3.082 29.9307 8.47167 31.3924C9.02554 30.3975 9.83525 29.5687 10.817 28.9918C11.7987 28.4149 12.9168 28.1108 14.0556 28.1111H16.4833C15.5147 27.2149 14.7421 26.1278 14.2144 24.9182C13.6866 23.7087 13.415 22.403 13.4167 21.0833C13.4167 19.4682 13.8153 17.9451 14.5232 16.6111H3.83333C2.81667 16.6111 1.84165 17.015 1.12276 17.7339C0.403868 18.4528 0 19.4278 0 20.4444V21.7222ZM19.8056 7.02778C19.8056 5.1639 19.0651 3.37635 17.7472 2.05839C16.4292 0.740425 14.6417 0 12.7778 0C10.9139 0 9.12635 0.740425 7.80839 2.05839C6.49042 3.37635 5.75 5.1639 5.75 7.02778C5.75 8.89166 6.49042 10.6792 7.80839 11.9972C9.12635 13.3151 10.9139 14.0556 12.7778 14.0556C14.6417 14.0556 16.4292 13.3151 17.7472 11.9972C19.0651 10.6792 19.8056 8.89166 19.8056 7.02778ZM40.25 7.02778C40.25 5.1639 39.5096 3.37635 38.1916 2.05839C36.8736 0.740425 35.0861 0 33.2222 0C31.3583 0 29.5708 0.740425 28.2528 2.05839C26.9349 3.37635 26.1944 5.1639 26.1944 7.02778C26.1944 8.89166 26.9349 10.6792 28.2528 11.9972C29.5708 13.3151 31.3583 14.0556 33.2222 14.0556C35.0861 14.0556 36.8736 13.3151 38.1916 11.9972C39.5096 10.6792 40.25 8.89166 40.25 7.02778Z" fill="black"/>
</svg>
