<svg width="63" height="63" viewBox="0 0 63 63" fill="none" xmlns="http://www.w3.org/2000/svg">
<path d="M31.5 42C34.2848 42 36.9555 40.8938 38.9246 38.9246C40.8938 36.9555 42 34.2848 42 31.5C42 28.7152 40.8938 26.0445 38.9246 24.0754C36.9555 22.1062 34.2848 21 31.5 21C28.7152 21 26.0445 22.1062 24.0754 24.0754C22.1062 26.0445 21 28.7152 21 31.5C21 34.2848 22.1062 36.9555 24.0754 38.9246C26.0445 40.8938 28.7152 42 31.5 42Z" fill="black"/>
<path fill-rule="evenodd" clip-rule="evenodd" d="M31.5 0C32.4283 0 33.3185 0.368749 33.9749 1.02513C34.6312 1.6815 35 2.57174 35 3.5V7.245C40.2358 8.0018 45.0864 10.4321 48.8272 14.1728C52.5679 17.9136 54.9982 22.7642 55.755 28H59.5C60.4283 28 61.3185 28.3687 61.9749 29.0251C62.6313 29.6815 63 30.5717 63 31.5C63 32.4283 62.6313 33.3185 61.9749 33.9749C61.3185 34.6312 60.4283 35 59.5 35H55.755C54.9982 40.2358 52.5679 45.0864 48.8272 48.8272C45.0864 52.5679 40.2358 54.9982 35 55.755V59.5C35 60.4283 34.6312 61.3185 33.9749 61.9749C33.3185 62.6313 32.4283 63 31.5 63C30.5717 63 29.6815 62.6313 29.0251 61.9749C28.3687 61.3185 28 60.4283 28 59.5V55.755C22.7642 54.9982 17.9136 52.5679 14.1728 48.8272C10.4321 45.0864 8.0018 40.2358 7.245 35H3.5C2.57174 35 1.6815 34.6312 1.02513 33.9749C0.368749 33.3185 0 32.4283 0 31.5C0 30.5717 0.368749 29.6815 1.02513 29.0251C1.6815 28.3687 2.57174 28 3.5 28H7.245C8.00234 22.7644 10.4328 17.9141 14.1735 14.1735C17.9141 10.4328 22.7644 8.00234 28 7.245V3.5C28 2.57174 28.3687 1.6815 29.0251 1.02513C29.6815 0.368749 30.5717 0 31.5 0ZM14 31.5C14 26.8587 15.8437 22.4075 19.1256 19.1256C22.4075 15.8437 26.8587 14 31.5 14C36.1413 14 40.5925 15.8437 43.8744 19.1256C47.1563 22.4075 49 26.8587 49 31.5C49 36.1413 47.1563 40.5925 43.8744 43.8744C40.5925 47.1563 36.1413 49 31.5 49C26.8587 49 22.4075 47.1563 19.1256 43.8744C15.8437 40.5925 14 36.1413 14 31.5Z" fill="black"/>
</svg>
