<svg width="129" height="89" viewBox="0 0 129 89" fill="none" xmlns="http://www.w3.org/2000/svg">
<path d="M14.4703 40.5474C20.8052 40.5474 25.9407 35.4119 25.9407 29.077C25.9407 22.7421 20.8052 17.6067 14.4703 17.6067C8.13545 17.6067 3 22.7421 3 29.077C3 35.4119 8.13545 40.5474 14.4703 40.5474Z" fill="#99EEDF"/>
<path d="M22.3088 14.7055C22.6486 14.7055 22.9733 14.5796 23.2323 14.3595C26.8201 11.3109 31.4624 9.46781 36.5281 9.46781C40.9796 9.46781 45.2081 10.8624 48.7662 13.503C50.6483 14.8996 53.288 14.8883 54.9843 13.272C57.1642 11.195 56.8918 7.77074 54.5926 6.03768C49.3524 2.08745 43.1056 0 36.5277 0C26.5235 0 17.6498 4.91884 12.1891 12.4624C11.513 13.3963 12.1962 14.7059 13.3494 14.7059L22.3088 14.7055Z" fill="#99EEDF"/>
<path d="M22.3088 14.7055C22.6486 14.7055 22.9733 14.5796 23.2323 14.3595C26.8201 11.3109 31.4624 9.46781 36.5281 9.46781C40.9796 9.46781 45.2081 10.8624 48.7662 13.503C50.6483 14.8996 53.288 14.8883 54.9843 13.272C57.1642 11.195 56.8918 7.77074 54.5926 6.03768C49.3524 2.08745 43.1056 0 36.5277 0C26.5235 0 17.6498 4.91884 12.1891 12.4624C11.513 13.3963 12.1962 14.7059 13.3494 14.7059L22.3088 14.7055Z" fill="#99EEDF"/>
<path d="M77.8023 19.9273C75.9115 18.1218 72.9153 18.19 71.109 20.0817C70.1613 21.0742 68.3713 23.3118 65.2893 27.1813C60.4859 33.2119 52.4462 43.3044 49.3035 45.8332C46.2269 48.3098 42.5491 50.6019 36.5281 50.6019C30.5377 50.6019 25.1415 48.024 21.3795 43.9232C21.1063 43.6253 20.726 43.4483 20.3214 43.4483H12.0787C10.9745 43.4483 10.2845 44.6583 10.8586 45.6014C16.1322 54.2676 25.6628 60.0701 36.5277 60.0701C45.5574 60.0701 51.2713 56.4036 55.2395 53.2094C58.9006 50.263 65.3106 42.35 72.6948 33.0801C74.937 30.2646 77.2559 27.3533 77.9563 26.6202C79.7617 24.7298 79.6931 21.7332 77.8023 19.9273Z" fill="#008970"/>
<path d="M105.53 42.4634C111.865 42.4634 117 37.3279 117 30.993C117 24.6581 111.865 19.5227 105.53 19.5227C99.1948 19.5227 94.0593 24.6581 94.0593 30.993C94.0593 37.3279 99.1948 42.4634 105.53 42.4634Z" fill="#008970"/>
<path d="M97.6911 45.3647C97.3514 45.3647 97.0267 45.4906 96.7677 45.7107C93.1798 48.7592 88.5375 50.6024 83.4718 50.6024C79.0203 50.6024 74.7923 49.2078 71.2337 46.5672C69.3517 45.1705 66.7119 45.1818 65.0153 46.7986C62.8353 48.8756 63.1077 52.2998 65.4069 54.0329C70.6471 57.9827 76.894 60.0706 83.4718 60.0706C93.476 60.0706 102.35 55.1517 107.81 47.6078C108.487 46.6739 107.803 45.3643 106.65 45.3643L97.6911 45.3647Z" fill="#99EEDF"/>
<path d="M42.1976 40.1428C44.0884 41.9483 47.0847 41.8801 48.8909 39.9884C49.8386 38.9959 51.6286 36.7583 54.7106 32.8888C59.514 26.8582 67.5538 16.7658 70.6965 14.2369C73.773 11.7603 77.4509 9.46823 83.4718 9.46823C89.4622 9.46823 94.8585 12.0461 98.6204 16.1469C98.8936 16.4448 99.274 16.6218 99.6786 16.6218H107.921C109.025 16.6218 109.715 15.4118 109.141 14.4687C103.867 5.80253 94.3367 0 83.4718 0C74.4421 0 68.7283 3.66654 64.76 6.86069C61.0989 9.80714 54.6889 17.7201 47.3047 26.9901C45.0625 29.8055 42.7436 32.7169 42.0432 33.4499C40.2382 35.3403 40.3068 38.337 42.1976 40.1428Z" fill="#008970"/>
<path d="M7.312 84.312C6.992 84.568 6.55467 84.7867 6 84.968C5.456 85.1387 4.87467 85.224 4.256 85.224C2.96533 85.224 2.02133 84.8507 1.424 84.104C0.826667 83.3467 0.528 82.312 0.528 81C0.528 79.592 0.864 78.536 1.536 77.832C2.208 77.128 3.152 76.776 4.368 76.776C4.77333 76.776 5.168 76.8293 5.552 76.936C5.936 77.0427 6.27733 77.2187 6.576 77.464C6.87467 77.7093 7.11467 78.04 7.296 78.456C7.47733 78.872 7.568 79.3893 7.568 80.008C7.568 80.232 7.552 80.472 7.52 80.728C7.49867 80.984 7.46133 81.2507 7.408 81.528H2.608C2.64 82.2 2.81067 82.7067 3.12 83.048C3.44 83.3893 3.952 83.56 4.656 83.56C5.09333 83.56 5.48267 83.496 5.824 83.368C6.176 83.2293 6.44267 83.0907 6.624 82.952L7.312 84.312ZM4.336 78.44C3.792 78.44 3.38667 78.6053 3.12 78.936C2.864 79.256 2.70933 79.688 2.656 80.232H5.632C5.67467 79.656 5.584 79.2133 5.36 78.904C5.14667 78.5947 4.80533 78.44 4.336 78.44ZM16.621 76.408C16.621 76.6853 16.5837 76.9627 16.509 77.24C16.445 77.5173 16.333 77.7733 16.173 78.008C16.013 78.232 15.805 78.4347 15.549 78.616C15.293 78.7867 14.9837 78.9147 14.621 79V79.096C14.941 79.1493 15.245 79.24 15.533 79.368C15.821 79.496 16.0717 79.672 16.285 79.896C16.4983 80.12 16.6637 80.392 16.781 80.712C16.909 81.032 16.973 81.4107 16.973 81.848C16.973 82.424 16.8503 82.9253 16.605 83.352C16.3597 83.768 16.029 84.1093 15.613 84.376C15.2077 84.6427 14.7437 84.84 14.221 84.968C13.6983 85.096 13.1597 85.16 12.605 85.16C12.4237 85.16 12.189 85.16 11.901 85.16C11.6237 85.16 11.3197 85.1493 10.989 85.128C10.669 85.1173 10.3383 85.096 9.997 85.064C9.66633 85.032 9.36233 84.984 9.085 84.92V73.88C9.28767 73.848 9.517 73.816 9.773 73.784C10.0397 73.752 10.3223 73.7253 10.621 73.704C10.9197 73.6827 11.2237 73.6667 11.533 73.656C11.853 73.6453 12.1677 73.64 12.477 73.64C12.9997 73.64 13.5063 73.6827 13.997 73.768C14.4983 73.8427 14.941 73.9813 15.325 74.184C15.7197 74.3867 16.0343 74.6693 16.269 75.032C16.5037 75.3947 16.621 75.8533 16.621 76.408ZM12.621 83.352C12.8877 83.352 13.1437 83.32 13.389 83.256C13.645 83.192 13.869 83.096 14.061 82.968C14.253 82.8293 14.4077 82.6587 14.525 82.456C14.6423 82.2533 14.701 82.0133 14.701 81.736C14.701 81.384 14.6317 81.1067 14.493 80.904C14.3543 80.7013 14.173 80.5467 13.949 80.44C13.725 80.3227 13.4743 80.248 13.197 80.216C12.9197 80.184 12.6423 80.168 12.365 80.168H11.197V83.256C11.2503 83.2773 11.3357 83.2933 11.453 83.304C11.5703 83.3147 11.693 83.3253 11.821 83.336C11.9597 83.336 12.0983 83.3413 12.237 83.352C12.3863 83.352 12.5143 83.352 12.621 83.352ZM11.901 78.504C12.0503 78.504 12.221 78.4987 12.413 78.488C12.6157 78.4773 12.781 78.4613 12.909 78.44C13.3143 78.312 13.661 78.12 13.949 77.864C14.2477 77.608 14.397 77.272 14.397 76.856C14.397 76.5787 14.3437 76.3493 14.237 76.168C14.1303 75.9867 13.9863 75.8427 13.805 75.736C13.6343 75.6293 13.437 75.5547 13.213 75.512C12.989 75.4693 12.7543 75.448 12.509 75.448C12.2317 75.448 11.9757 75.4533 11.741 75.464C11.5063 75.4747 11.325 75.4907 11.197 75.512V78.504H11.901ZM18.4421 77.464C18.8688 77.272 19.3755 77.1227 19.9621 77.016C20.5488 76.8987 21.1621 76.84 21.8021 76.84C22.3568 76.84 22.8208 76.9093 23.1941 77.048C23.5675 77.176 23.8608 77.3627 24.0741 77.608C24.2981 77.8533 24.4528 78.1467 24.5381 78.488C24.6341 78.8293 24.6821 79.2133 24.6821 79.64C24.6821 80.1093 24.6661 80.584 24.6341 81.064C24.6021 81.5333 24.5808 81.9973 24.5701 82.456C24.5701 82.9147 24.5861 83.3627 24.6181 83.8C24.6501 84.2267 24.7301 84.632 24.8581 85.016H23.1621L22.8261 83.912H22.7461C22.5328 84.2427 22.2341 84.5307 21.8501 84.776C21.4768 85.0107 20.9915 85.128 20.3941 85.128C20.0208 85.128 19.6848 85.0747 19.3861 84.968C19.0875 84.8507 18.8315 84.6907 18.6181 84.488C18.4048 84.2747 18.2395 84.0293 18.1221 83.752C18.0048 83.464 17.9461 83.144 17.9461 82.792C17.9461 82.3013 18.0528 81.8907 18.2661 81.56C18.4901 81.2187 18.8048 80.9467 19.2101 80.744C19.6261 80.5307 20.1168 80.3867 20.6821 80.312C21.2581 80.2267 21.8981 80.2 22.6021 80.232C22.6768 79.6347 22.6341 79.208 22.4741 78.952C22.3141 78.6853 21.9568 78.552 21.4021 78.552C20.9861 78.552 20.5435 78.5947 20.0741 78.68C19.6155 78.7653 19.2368 78.8773 18.9381 79.016L18.4421 77.464ZM21.0821 83.416C21.4981 83.416 21.8288 83.3253 22.0741 83.144C22.3195 82.952 22.5008 82.7493 22.6181 82.536V81.496C22.2875 81.464 21.9675 81.4587 21.6581 81.48C21.3595 81.5013 21.0928 81.5493 20.8581 81.624C20.6235 81.6987 20.4368 81.8053 20.2981 81.944C20.1595 82.0827 20.0901 82.2587 20.0901 82.472C20.0901 82.7707 20.1755 83.0053 20.3461 83.176C20.5275 83.336 20.7728 83.416 21.0821 83.416ZM30.8436 78.952C30.513 78.8347 30.2143 78.776 29.9476 78.776C29.5743 78.776 29.2596 78.8773 29.0036 79.08C28.7583 79.272 28.593 79.5227 28.5076 79.832V85H26.4276V77H28.0436L28.2836 78.056H28.3476C28.529 77.6613 28.7743 77.3573 29.0836 77.144C29.393 76.9307 29.7556 76.824 30.1716 76.824C30.449 76.824 30.7636 76.8827 31.1156 77L30.8436 78.952ZM31.989 77.464C32.4157 77.272 32.9223 77.1227 33.509 77.016C34.0957 76.8987 34.709 76.84 35.349 76.84C35.9037 76.84 36.3677 76.9093 36.741 77.048C37.1143 77.176 37.4077 77.3627 37.621 77.608C37.845 77.8533 37.9997 78.1467 38.085 78.488C38.181 78.8293 38.229 79.2133 38.229 79.64C38.229 80.1093 38.213 80.584 38.181 81.064C38.149 81.5333 38.1277 81.9973 38.117 82.456C38.117 82.9147 38.133 83.3627 38.165 83.8C38.197 84.2267 38.277 84.632 38.405 85.016H36.709L36.373 83.912H36.293C36.0797 84.2427 35.781 84.5307 35.397 84.776C35.0237 85.0107 34.5383 85.128 33.941 85.128C33.5677 85.128 33.2317 85.0747 32.933 84.968C32.6343 84.8507 32.3783 84.6907 32.165 84.488C31.9517 84.2747 31.7863 84.0293 31.669 83.752C31.5517 83.464 31.493 83.144 31.493 82.792C31.493 82.3013 31.5997 81.8907 31.813 81.56C32.037 81.2187 32.3517 80.9467 32.757 80.744C33.173 80.5307 33.6637 80.3867 34.229 80.312C34.805 80.2267 35.445 80.2 36.149 80.232C36.2237 79.6347 36.181 79.208 36.021 78.952C35.861 78.6853 35.5037 78.552 34.949 78.552C34.533 78.552 34.0903 78.5947 33.621 78.68C33.1623 78.7653 32.7837 78.8773 32.485 79.016L31.989 77.464ZM34.629 83.416C35.045 83.416 35.3757 83.3253 35.621 83.144C35.8663 82.952 36.0477 82.7493 36.165 82.536V81.496C35.8343 81.464 35.5143 81.4587 35.205 81.48C34.9063 81.5013 34.6397 81.5493 34.405 81.624C34.1703 81.6987 33.9837 81.8053 33.845 81.944C33.7063 82.0827 33.637 82.2587 33.637 82.472C33.637 82.7707 33.7223 83.0053 33.893 83.176C34.0743 83.336 34.3197 83.416 34.629 83.416ZM44.8705 85V80.456C44.8705 79.8053 44.7745 79.336 44.5825 79.048C44.4012 78.76 44.0865 78.616 43.6385 78.616C43.2438 78.616 42.9078 78.7333 42.6305 78.968C42.3638 79.192 42.1718 79.4747 42.0545 79.816V85H39.9745V77H41.6225L41.8625 78.056H41.9265C42.1718 77.7147 42.4972 77.416 42.9025 77.16C43.3078 76.904 43.8305 76.776 44.4705 76.776C44.8652 76.776 45.2172 76.8293 45.5265 76.936C45.8358 77.0427 46.0972 77.2187 46.3105 77.464C46.5238 77.7093 46.6838 78.0453 46.7905 78.472C46.8972 78.888 46.9505 79.4053 46.9505 80.024V85H44.8705ZM55.4613 85C55.4613 86.1627 55.1466 87.016 54.5173 87.56C53.8879 88.1147 53.0079 88.392 51.8773 88.392C51.1093 88.392 50.5013 88.3387 50.0533 88.232C49.6159 88.1253 49.2853 88.0133 49.0613 87.896L49.4933 86.248C49.7386 86.344 50.0213 86.44 50.3413 86.536C50.6719 86.632 51.0773 86.68 51.5573 86.68C52.2826 86.68 52.7733 86.52 53.0293 86.2C53.2959 85.8907 53.4293 85.4533 53.4293 84.888V84.376H53.3653C52.9919 84.8773 52.3306 85.128 51.3813 85.128C50.3466 85.128 49.5733 84.808 49.0613 84.168C48.5599 83.528 48.3092 82.5253 48.3092 81.16C48.3092 79.7307 48.6506 78.648 49.3333 77.912C50.0159 77.176 51.0079 76.808 52.3093 76.808C52.9919 76.808 53.5999 76.856 54.1333 76.952C54.6773 77.048 55.1199 77.16 55.4613 77.288V85ZM51.9413 83.464C52.3466 83.464 52.6559 83.3733 52.8693 83.192C53.0933 83.0107 53.2639 82.7387 53.3813 82.376V78.776C53.0506 78.6373 52.6399 78.568 52.1493 78.568C51.6159 78.568 51.1999 78.7707 50.9013 79.176C50.6026 79.5707 50.4533 80.2053 50.4533 81.08C50.4533 81.8587 50.5813 82.4507 50.8373 82.856C51.0933 83.2613 51.4613 83.464 51.9413 83.464ZM57.2234 77.464C57.65 77.272 58.1567 77.1227 58.7434 77.016C59.33 76.8987 59.9434 76.84 60.5834 76.84C61.138 76.84 61.602 76.9093 61.9754 77.048C62.3487 77.176 62.642 77.3627 62.8554 77.608C63.0794 77.8533 63.234 78.1467 63.3194 78.488C63.4154 78.8293 63.4634 79.2133 63.4634 79.64C63.4634 80.1093 63.4474 80.584 63.4154 81.064C63.3834 81.5333 63.362 81.9973 63.3514 82.456C63.3514 82.9147 63.3674 83.3627 63.3994 83.8C63.4314 84.2267 63.5114 84.632 63.6394 85.016H61.9434L61.6074 83.912H61.5274C61.314 84.2427 61.0154 84.5307 60.6314 84.776C60.258 85.0107 59.7727 85.128 59.1754 85.128C58.802 85.128 58.466 85.0747 58.1674 84.968C57.8687 84.8507 57.6127 84.6907 57.3994 84.488C57.186 84.2747 57.0207 84.0293 56.9034 83.752C56.786 83.464 56.7274 83.144 56.7274 82.792C56.7274 82.3013 56.834 81.8907 57.0474 81.56C57.2714 81.2187 57.586 80.9467 57.9914 80.744C58.4074 80.5307 58.898 80.3867 59.4634 80.312C60.0394 80.2267 60.6794 80.2 61.3834 80.232C61.458 79.6347 61.4154 79.208 61.2554 78.952C61.0954 78.6853 60.738 78.552 60.1834 78.552C59.7674 78.552 59.3247 78.5947 58.8554 78.68C58.3967 78.7653 58.018 78.8773 57.7194 79.016L57.2234 77.464ZM59.8634 83.416C60.2794 83.416 60.61 83.3253 60.8554 83.144C61.1007 82.952 61.282 82.7493 61.3994 82.536V81.496C61.0687 81.464 60.7487 81.4587 60.4394 81.48C60.1407 81.5013 59.874 81.5493 59.6394 81.624C59.4047 81.6987 59.218 81.8053 59.0794 81.944C58.9407 82.0827 58.8714 82.2587 58.8714 82.472C58.8714 82.7707 58.9567 83.0053 59.1274 83.176C59.3087 83.336 59.554 83.416 59.8634 83.416ZM68.1209 81.496L68.4089 82.744H68.5049L68.7129 81.48L69.9289 77H72.0729L69.6409 84.216C69.4382 84.8133 69.2409 85.3573 69.0489 85.848C68.8675 86.3493 68.6649 86.7813 68.4409 87.144C68.2169 87.5067 67.9662 87.784 67.6889 87.976C67.4222 88.1787 67.1022 88.28 66.7289 88.28C66.1742 88.28 65.7315 88.1893 65.4009 88.008L65.7849 86.344C65.9449 86.408 66.1049 86.44 66.2649 86.44C66.5102 86.44 66.7449 86.3333 66.9689 86.12C67.2035 85.9173 67.3795 85.544 67.4969 85L64.1529 77H66.6489L68.1209 81.496Z" fill="#008970"/>
<path d="M80.4815 84.536C80.1402 84.7813 79.7028 84.9573 79.1695 85.064C78.6468 85.1707 78.1082 85.224 77.5535 85.224C76.8815 85.224 76.2415 85.1227 75.6335 84.92C75.0362 84.7067 74.5082 84.3707 74.0495 83.912C73.5908 83.4427 73.2228 82.84 72.9455 82.104C72.6788 81.3573 72.5455 80.456 72.5455 79.4C72.5455 78.3013 72.6948 77.384 72.9935 76.648C73.3028 75.9013 73.6975 75.304 74.1775 74.856C74.6682 74.3973 75.2122 74.072 75.8095 73.88C76.4068 73.6773 77.0042 73.576 77.6015 73.576C78.2415 73.576 78.7802 73.6187 79.2175 73.704C79.6655 73.7893 80.0335 73.8907 80.3215 74.008L79.8895 75.864C79.6442 75.7467 79.3508 75.6613 79.0095 75.608C78.6788 75.5547 78.2735 75.528 77.7935 75.528C76.9082 75.528 76.1935 75.8427 75.6495 76.472C75.1162 77.1013 74.8495 78.0773 74.8495 79.4C74.8495 79.976 74.9135 80.504 75.0415 80.984C75.1695 81.4533 75.3615 81.8587 75.6175 82.2C75.8842 82.5307 76.2095 82.792 76.5935 82.984C76.9882 83.1653 77.4415 83.256 77.9535 83.256C78.4335 83.256 78.8388 83.208 79.1695 83.112C79.5002 83.016 79.7882 82.8933 80.0335 82.744L80.4815 84.536ZM80.8249 81C80.8249 79.6453 81.1555 78.6053 81.8169 77.88C82.4782 77.144 83.4062 76.776 84.6009 76.776C85.2409 76.776 85.7955 76.8773 86.2649 77.08C86.7342 77.2827 87.1235 77.5707 87.4329 77.944C87.7422 78.3067 87.9715 78.7493 88.1209 79.272C88.2809 79.7947 88.3609 80.3707 88.3609 81C88.3609 82.3547 88.0302 83.4 87.3689 84.136C86.7182 84.8613 85.7955 85.224 84.6009 85.224C83.9609 85.224 83.4062 85.1227 82.9369 84.92C82.4675 84.7173 82.0729 84.4347 81.7529 84.072C81.4435 83.6987 81.2089 83.2507 81.0489 82.728C80.8995 82.2053 80.8249 81.6293 80.8249 81ZM82.9689 81C82.9689 81.352 83.0009 81.6773 83.0649 81.976C83.1289 82.2747 83.2249 82.536 83.3529 82.76C83.4809 82.984 83.6462 83.16 83.8489 83.288C84.0622 83.4053 84.3129 83.464 84.6009 83.464C85.1449 83.464 85.5502 83.2667 85.8169 82.872C86.0835 82.4773 86.2169 81.8533 86.2169 81C86.2169 80.264 86.0942 79.672 85.8489 79.224C85.6035 78.7653 85.1875 78.536 84.6009 78.536C84.0889 78.536 83.6889 78.728 83.4009 79.112C83.1129 79.496 82.9689 80.1253 82.9689 81ZM94.6986 85V80.456C94.6986 79.8053 94.6026 79.336 94.4106 79.048C94.2293 78.76 93.9146 78.616 93.4666 78.616C93.072 78.616 92.736 78.7333 92.4586 78.968C92.192 79.192 92 79.4747 91.8826 79.816V85H89.8026V77H91.4506L91.6906 78.056H91.7546C92 77.7147 92.3253 77.416 92.7306 77.16C93.136 76.904 93.6586 76.776 94.2986 76.776C94.6933 76.776 95.0453 76.8293 95.3546 76.936C95.664 77.0427 95.9253 77.2187 96.1386 77.464C96.352 77.7093 96.512 78.0453 96.6186 78.472C96.7253 78.888 96.7786 79.4053 96.7786 80.024V85H94.6986ZM103.417 85V80.456C103.417 79.8053 103.321 79.336 103.129 79.048C102.948 78.76 102.633 78.616 102.185 78.616C101.791 78.616 101.455 78.7333 101.177 78.968C100.911 79.192 100.719 79.4747 100.601 79.816V85H98.5214V77H100.169L100.409 78.056H100.473C100.719 77.7147 101.044 77.416 101.449 77.16C101.855 76.904 102.377 76.776 103.017 76.776C103.412 76.776 103.764 76.8293 104.073 76.936C104.383 77.0427 104.644 77.2187 104.857 77.464C105.071 77.7093 105.231 78.0453 105.337 78.472C105.444 78.888 105.497 79.4053 105.497 80.024V85H103.417ZM113.64 84.312C113.32 84.568 112.883 84.7867 112.328 84.968C111.784 85.1387 111.203 85.224 110.584 85.224C109.293 85.224 108.349 84.8507 107.752 84.104C107.155 83.3467 106.856 82.312 106.856 81C106.856 79.592 107.192 78.536 107.864 77.832C108.536 77.128 109.48 76.776 110.696 76.776C111.101 76.776 111.496 76.8293 111.88 76.936C112.264 77.0427 112.605 77.2187 112.904 77.464C113.203 77.7093 113.443 78.04 113.624 78.456C113.805 78.872 113.896 79.3893 113.896 80.008C113.896 80.232 113.88 80.472 113.848 80.728C113.827 80.984 113.789 81.2507 113.736 81.528H108.936C108.968 82.2 109.139 82.7067 109.448 83.048C109.768 83.3893 110.28 83.56 110.984 83.56C111.421 83.56 111.811 83.496 112.152 83.368C112.504 83.2293 112.771 83.0907 112.952 82.952L113.64 84.312ZM110.664 78.44C110.12 78.44 109.715 78.6053 109.448 78.936C109.192 79.256 109.037 79.688 108.984 80.232H111.96C112.003 79.656 111.912 79.2133 111.688 78.904C111.475 78.5947 111.133 78.44 110.664 78.44ZM120.951 84.504C120.631 84.7387 120.242 84.9147 119.783 85.032C119.335 85.16 118.871 85.224 118.391 85.224C117.751 85.224 117.207 85.1227 116.759 84.92C116.322 84.7173 115.964 84.4347 115.687 84.072C115.41 83.6987 115.207 83.2507 115.079 82.728C114.962 82.2053 114.903 81.6293 114.903 81C114.903 79.6453 115.207 78.6053 115.815 77.88C116.423 77.144 117.308 76.776 118.471 76.776C119.058 76.776 119.527 76.824 119.879 76.92C120.242 77.016 120.567 77.1387 120.855 77.288L120.359 78.984C120.114 78.8667 119.868 78.776 119.623 78.712C119.388 78.648 119.116 78.616 118.807 78.616C118.231 78.616 117.794 78.808 117.495 79.192C117.196 79.5653 117.047 80.168 117.047 81C117.047 81.3413 117.084 81.656 117.159 81.944C117.234 82.232 117.346 82.4827 117.495 82.696C117.644 82.9093 117.836 83.08 118.071 83.208C118.316 83.3253 118.599 83.384 118.919 83.384C119.271 83.384 119.57 83.3413 119.815 83.256C120.06 83.16 120.279 83.048 120.471 82.92L120.951 84.504ZM121.377 77H122.481V75.496L124.561 74.904V77H126.513V78.76H124.561V81.832C124.561 82.3867 124.614 82.7867 124.721 83.032C124.838 83.2667 125.052 83.384 125.361 83.384C125.574 83.384 125.756 83.3627 125.905 83.32C126.065 83.2773 126.241 83.2133 126.433 83.128L126.801 84.728C126.513 84.8667 126.177 84.984 125.793 85.08C125.409 85.176 125.02 85.224 124.625 85.224C123.889 85.224 123.345 85.0373 122.993 84.664C122.652 84.28 122.481 83.656 122.481 82.792V78.76H121.377V77Z" fill="#232323"/>
</svg>
