<svg width="172" height="172" viewBox="0 0 172 172" fill="none" xmlns="http://www.w3.org/2000/svg">
<circle cx="86" cy="86" r="86" fill="#2BAE66"/>
<g clip-path="url(#clip0_39_95)">
<path d="M109.167 66.6667H52.3889C51.3133 66.6667 50.2818 66.2394 49.5212 65.4788C48.7606 64.7183 48.3333 63.6867 48.3333 62.6111V46.3889C48.3333 45.3133 48.7606 44.2818 49.5212 43.5212C50.2818 42.7606 51.3133 42.3333 52.3889 42.3333H109.167C110.242 42.3333 111.274 42.7606 112.034 43.5212C112.795 44.2818 113.222 45.3133 113.222 46.3889V62.6111C113.222 63.6867 112.795 64.7183 112.034 65.4788C111.274 66.2394 110.242 66.6667 109.167 66.6667ZM56.4445 58.5556H105.111V50.2011H56.4445V58.5556Z" fill="#FCF6F5"/>
<path d="M109.167 75.1022H52.3889C51.3133 75.1022 50.2818 75.5295 49.5212 76.2901C48.7606 77.0506 48.3333 78.0822 48.3333 79.1578V95.0556C48.3333 96.1312 48.7606 97.1627 49.5212 97.9233C50.2818 98.6838 51.3133 99.1111 52.3889 99.1111H98.46L113.222 84.1055V79.1578C113.222 78.0822 112.795 77.0506 112.034 76.2901C111.274 75.5295 110.242 75.1022 109.167 75.1022ZM105.111 91H56.4445V82.8889H105.111V91Z" fill="#FCF6F5"/>
<path d="M68.8545 145.791V145.547L70.1522 139.91H40.2222V34.2222H121.333V75.7917L129.444 68.1267V30.1667C129.444 29.0911 129.017 28.0595 128.257 27.299C127.496 26.5384 126.465 26.1111 125.389 26.1111H36.1667C35.0911 26.1111 34.0595 26.5384 33.299 27.299C32.5384 28.0595 32.1111 29.0911 32.1111 30.1667V143.722C32.1111 144.798 32.5384 145.829 33.299 146.59C34.0595 147.351 35.0911 147.778 36.1667 147.778H68.6111C68.6445 147.11 68.7259 146.446 68.8545 145.791Z" fill="#FCF6F5"/>
<path d="M113.222 95.745L110.059 98.9489C110.844 98.7871 111.563 98.3964 112.126 97.8262C112.689 97.256 113.07 96.5318 113.222 95.745Z" fill="#FCF6F5"/>
<path d="M48.3333 127.257C48.3333 128.332 48.7606 129.364 49.5212 130.124C50.2818 130.885 51.3133 131.312 52.3889 131.312H72.0178L73.2345 126.04L73.7617 123.809V123.607H56.4445V115.333H82.1567L90.2678 107.222H52.3889C51.3133 107.222 50.2818 107.65 49.5212 108.41C48.7606 109.171 48.3333 110.202 48.3333 111.278V127.257Z" fill="#FCF6F5"/>
<path d="M159.821 85.6061L146.153 71.9389C145.547 71.3307 144.826 70.8481 144.033 70.5189C143.239 70.1896 142.389 70.0201 141.53 70.0201C140.671 70.0201 139.821 70.1896 139.027 70.5189C138.234 70.8481 137.513 71.3307 136.907 71.9389L81.305 127.865L76.7222 147.372C76.5506 148.214 76.5468 149.081 76.7109 149.924C76.875 150.767 77.2037 151.569 77.6784 152.285C78.1531 153.001 78.7643 153.616 79.4771 154.095C80.1899 154.575 80.9902 154.908 81.8322 155.078C82.2502 155.12 82.6714 155.12 83.0894 155.078C83.5863 155.159 84.0931 155.159 84.59 155.078L104.259 150.738L159.821 95.0555C160.428 94.4525 160.909 93.7353 161.238 92.9453C161.567 92.1553 161.736 91.3081 161.736 90.4525C161.736 89.5969 161.567 88.7497 161.238 87.9597C160.909 87.1697 160.428 86.4525 159.821 85.8494V85.6061ZM100.123 143.357L85.2794 146.642L88.8889 131.921L130.58 89.7833L142.017 101.22L100.123 143.357ZM146.599 96.6372L135.163 85.2006L141.611 78.8333L153.129 90.3511L146.599 96.6372Z" fill="#FCF6F5"/>
</g>
<defs>
<clipPath id="clip0_39_95">
<rect width="146" height="146" fill="white" transform="translate(24 18)"/>
</clipPath>
</defs>
</svg>
