<svg width="41" height="47" viewBox="0 0 41 47" fill="none" xmlns="http://www.w3.org/2000/svg">
<path d="M20.5 46.857C23.7324 46.857 26.3544 44.235 26.3544 40.9999H14.6456C14.6456 44.235 17.2676 46.857 20.5 46.857ZM40.212 33.1559C38.4439 31.256 35.1355 28.3979 35.1355 19.0357C35.1355 11.9247 30.1496 6.23235 23.4267 4.83579V2.92856C23.4267 1.31145 22.1162 0 20.5 0C18.8838 0 17.5733 1.31145 17.5733 2.92856V4.83579C10.8504 6.23235 5.86451 11.9247 5.86451 19.0357C5.86451 28.3979 2.55615 31.256 0.78803 33.1559C0.238924 33.7462 -0.0045126 34.4518 6.32742e-05 35.1427C0.0101302 36.6436 1.18796 38.0713 2.93778 38.0713H38.0622C39.812 38.0713 40.9908 36.6436 40.9999 35.1427C41.0045 34.4518 40.7611 33.7453 40.212 33.1559Z" fill="#3F3F3F"/>
</svg>
