<svg width="16" height="16" viewBox="0 0 16 16" fill="none" xmlns="http://www.w3.org/2000/svg">
<path fill-rule="evenodd" clip-rule="evenodd" d="M7.734 4.192C6.572 3.402 5 4.234 5 5.64V10.362C5 11.767 6.572 12.599 7.734 11.809L11.206 9.449C11.4421 9.28855 11.6355 9.07277 11.7691 8.82046C11.9027 8.56816 11.9725 8.287 11.9725 8.0015C11.9725 7.716 11.9027 7.43484 11.7691 7.18254C11.6355 6.93023 11.4421 6.71445 11.206 6.554L7.734 4.194V4.192ZM6.5 5.64C6.5 5.44 6.725 5.32 6.89 5.434L10.362 7.794C10.3958 7.81691 10.4235 7.84775 10.4427 7.88384C10.4618 7.91992 10.4718 7.96015 10.4718 8.001C10.4718 8.04185 10.4618 8.08208 10.4427 8.11816C10.4235 8.15425 10.3958 8.1851 10.362 8.208L6.891 10.568C6.85347 10.5936 6.80966 10.6086 6.76428 10.6111C6.71891 10.6137 6.67368 10.6039 6.63347 10.5827C6.59326 10.5616 6.55958 10.5298 6.53607 10.4909C6.51255 10.452 6.50008 10.4075 6.5 10.362V5.64Z" fill="#FCF6F5"/>
<path fill-rule="evenodd" clip-rule="evenodd" d="M7.25 5.4718e-09C6.78966 -3.63724e-05 6.34784 0.181315 6.02028 0.504761C5.69271 0.828206 5.50579 1.26769 5.5 1.728C5.44402 1.75058 5.38835 1.77392 5.333 1.798C5.00347 1.47633 4.56042 1.29751 4.09992 1.30032C3.63942 1.30312 3.19859 1.48733 2.873 1.813L1.813 2.873C1.48733 3.19859 1.30312 3.63942 1.30032 4.09992C1.29751 4.56042 1.47633 5.00347 1.798 5.333C1.77392 5.38835 1.75058 5.44402 1.728 5.5C1.26769 5.50579 0.828206 5.69271 0.504761 6.02028C0.181315 6.34784 -3.63724e-05 6.78966 5.4718e-09 7.25V8.75C5.4718e-09 9.71 0.772 10.488 1.728 10.5L1.798 10.667C1.47633 10.9965 1.29751 11.4396 1.30032 11.9001C1.30312 12.3606 1.48733 12.8014 1.813 13.127L2.873 14.187C3.19859 14.5127 3.63942 14.6969 4.09992 14.6997C4.56042 14.7025 5.00347 14.5237 5.333 14.202L5.5 14.272C5.50579 14.7323 5.69271 15.1718 6.02028 15.4952C6.34784 15.8187 6.78966 16 7.25 16H8.75C9.21034 16 9.65216 15.8187 9.97972 15.4952C10.3073 15.1718 10.4942 14.7323 10.5 14.272L10.667 14.202C10.9965 14.5237 11.4396 14.7025 11.9001 14.6997C12.3606 14.6969 12.8014 14.5127 13.127 14.187L14.187 13.127C14.5127 12.8014 14.6969 12.3606 14.6997 11.9001C14.7025 11.4396 14.5237 10.9965 14.202 10.667L14.272 10.5C14.7323 10.4942 15.1718 10.3073 15.4952 9.97972C15.8187 9.65216 16 9.21034 16 8.75V7.25C16 6.78966 15.8187 6.34784 15.4952 6.02028C15.1718 5.69271 14.7323 5.50579 14.272 5.5C14.2495 5.44399 14.2261 5.38832 14.202 5.333C14.5237 5.00347 14.7025 4.56042 14.6997 4.09992C14.6969 3.63942 14.5127 3.19859 14.187 2.873L13.127 1.813C12.8014 1.48733 12.3606 1.30312 11.9001 1.30032C11.4396 1.29751 10.9965 1.47633 10.667 1.798C10.6116 1.77393 10.556 1.75059 10.5 1.728C10.4942 1.26769 10.3073 0.828206 9.97972 0.504761C9.65216 0.181315 9.21034 -3.63724e-05 8.75 5.4718e-09L7.25 5.4718e-09ZM7 1.75C7 1.6837 7.02634 1.62011 7.07322 1.57322C7.12011 1.52634 7.1837 1.5 7.25 1.5H8.75C8.8163 1.5 8.87989 1.52634 8.92678 1.57322C8.97366 1.62011 9 1.6837 9 1.75V2.26C9 2.59 9.216 2.88 9.532 2.977C9.858 3.077 10.172 3.207 10.468 3.365C10.6099 3.44089 10.7725 3.46913 10.9316 3.44554C11.0908 3.42195 11.2382 3.34778 11.352 3.234L11.712 2.874C11.7352 2.85072 11.7628 2.83225 11.7932 2.81964C11.8236 2.80704 11.8561 2.80055 11.889 2.80055C11.9219 2.80055 11.9544 2.80704 11.9848 2.81964C12.0152 2.83225 12.0428 2.85072 12.066 2.874L13.126 3.934C13.1493 3.95722 13.1678 3.98481 13.1804 4.01518C13.193 4.04556 13.1994 4.07812 13.1994 4.111C13.1994 4.14388 13.193 4.17644 13.1804 4.20682C13.1678 4.23719 13.1493 4.26478 13.126 4.288L12.766 4.648C12.6522 4.7618 12.5781 4.90917 12.5545 5.06836C12.5309 5.22754 12.5591 5.3901 12.635 5.532C12.793 5.828 12.924 6.142 13.023 6.468C13.0698 6.62197 13.1648 6.75681 13.2941 6.85261C13.4234 6.94841 13.5801 7.00008 13.741 7H14.25C14.3163 7 14.3799 7.02634 14.4268 7.07322C14.4737 7.12011 14.5 7.1837 14.5 7.25V8.75C14.5 8.8163 14.4737 8.87989 14.4268 8.92678C14.3799 8.97366 14.3163 9 14.25 9H13.74C13.5793 9.00013 13.4228 9.05191 13.2937 9.14769C13.1646 9.24347 13.0697 9.3782 13.023 9.532C12.923 9.858 12.793 10.172 12.635 10.468C12.5591 10.6099 12.5309 10.7725 12.5545 10.9316C12.5781 11.0908 12.6522 11.2382 12.766 11.352L13.126 11.712C13.1493 11.7352 13.1678 11.7628 13.1804 11.7932C13.193 11.8236 13.1994 11.8561 13.1994 11.889C13.1994 11.9219 13.193 11.9544 13.1804 11.9848C13.1678 12.0152 13.1493 12.0428 13.126 12.066L12.066 13.126C12.0428 13.1493 12.0152 13.1678 11.9848 13.1804C11.9544 13.193 11.9219 13.1994 11.889 13.1994C11.8561 13.1994 11.8236 13.193 11.7932 13.1804C11.7628 13.1678 11.7352 13.1493 11.712 13.126L11.352 12.766C11.2382 12.6522 11.0908 12.5781 10.9316 12.5545C10.7725 12.5309 10.6099 12.5591 10.468 12.635C10.172 12.793 9.858 12.924 9.532 13.023C9.37803 13.0698 9.24319 13.1648 9.14739 13.2941C9.05159 13.4234 8.99992 13.5801 9 13.741V14.25C9 14.3163 8.97366 14.3799 8.92678 14.4268C8.87989 14.4737 8.8163 14.5 8.75 14.5H7.25C7.1837 14.5 7.12011 14.4737 7.07322 14.4268C7.02634 14.3799 7 14.3163 7 14.25V13.74C6.99987 13.5793 6.94809 13.4228 6.85231 13.2937C6.75653 13.1646 6.6218 13.0697 6.468 13.023C6.142 12.923 5.828 12.793 5.532 12.635C5.3901 12.5591 5.22754 12.5309 5.06836 12.5545C4.90917 12.5781 4.7618 12.6522 4.648 12.766L4.288 13.126C4.26478 13.1493 4.23719 13.1678 4.20682 13.1804C4.17644 13.193 4.14388 13.1994 4.111 13.1994C4.07812 13.1994 4.04556 13.193 4.01518 13.1804C3.98481 13.1678 3.95722 13.1493 3.934 13.126L2.874 12.066C2.85072 12.0428 2.83225 12.0152 2.81964 11.9848C2.80704 11.9544 2.80055 11.9219 2.80055 11.889C2.80055 11.8561 2.80704 11.8236 2.81964 11.7932C2.83225 11.7628 2.85072 11.7352 2.874 11.712L3.234 11.352C3.34778 11.2382 3.42195 11.0908 3.44554 10.9316C3.46913 10.7725 3.44089 10.6099 3.365 10.468C3.20558 10.1693 3.07563 9.85586 2.977 9.532C2.93023 9.37803 2.83517 9.24319 2.70588 9.14739C2.57659 9.05159 2.41992 8.99992 2.259 9H1.75C1.6837 9 1.62011 8.97366 1.57322 8.92678C1.52634 8.87989 1.5 8.8163 1.5 8.75V7.25C1.5 7.1837 1.52634 7.12011 1.57322 7.07322C1.62011 7.02634 1.6837 7 1.75 7H2.26C2.42074 6.99987 2.57719 6.94809 2.70628 6.85231C2.83538 6.75653 2.93028 6.6218 2.977 6.468C3.077 6.142 3.207 5.828 3.365 5.532C3.44089 5.3901 3.46913 5.22754 3.44554 5.06836C3.42195 4.90917 3.34778 4.7618 3.234 4.648L2.874 4.288C2.85072 4.26478 2.83225 4.23719 2.81964 4.20682C2.80704 4.17644 2.80055 4.14388 2.80055 4.111C2.80055 4.07812 2.80704 4.04556 2.81964 4.01518C2.83225 3.98481 2.85072 3.95722 2.874 3.934L3.934 2.874C3.95722 2.85072 3.98481 2.83225 4.01518 2.81964C4.04556 2.80704 4.07812 2.80055 4.111 2.80055C4.14388 2.80055 4.17644 2.80704 4.20682 2.81964C4.23719 2.83225 4.26478 2.85072 4.288 2.874L4.648 3.234C4.7618 3.34778 4.90917 3.42195 5.06836 3.44554C5.22754 3.46913 5.3901 3.44089 5.532 3.365C5.828 3.207 6.142 3.076 6.468 2.977C6.62197 2.93023 6.75681 2.83517 6.85261 2.70588C6.94841 2.57659 7.00008 2.41992 7 2.259V1.75Z" fill="#FCF6F5"/>
</svg>
